{"asset":{"version":"2.0","generator":"Blockbench 4.10.4 glTF exporter"},"scenes":[{"nodes":[3],"name":"blockbench_export"}],"scene":0,"nodes":[{"translation":[0,1.4375,0],"name":"cuboid","mesh":0},{"rotation":[0,0,0.7071067811865475,0.7071067811865476],"translation":[0.25,1.6875,0.125],"name":"cylinder","mesh":1},{"rotation":[0,0,0.7071067811865475,0.7071067811865476],"translation":[0.25,1.6875,-0.125],"name":"cylinder","mesh":2},{"children":[0,1,2]}],"bufferViews":[{"buffer":0,"byteOffset":0,"byteLength":816,"target":34962,"byteStride":12},{"buffer":0,"byteOffset":816,"byteLength":816,"target":34962,"byteStride":12},{"buffer":0,"byteOffset":1632,"byteLength":544,"target":34962,"byteStride":8},{"buffer":0,"byteOffset":2176,"byteLength":204,"target":34963},{"buffer":0,"byteOffset":2380,"byteLength":720,"target":34962,"byteStride":12},{"buffer":0,"byteOffset":3100,"byteLength":720,"target":34962,"byteStride":12},{"buffer":0,"byteOffset":3820,"byteLength":480,"target":34962,"byteStride":8},{"buffer":0,"byteOffset":4300,"byteLength":144,"target":34963},{"buffer":0,"byteOffset":4444,"byteLength":720,"target":34962,"byteStride":12},{"buffer":0,"byteOffset":5164,"byteLength":720,"target":34962,"byteStride":12},{"buffer":0,"byteOffset":5884,"byteLength":480,"target":34962,"byteStride":8},{"buffer":0,"byteOffset":6364,"byteLength":144,"target":34963}],"buffers":[{"byteLength":6508,"uri":"data:application/octet-stream;base64,"}],"accessors":[{"bufferView":0,"componentType":5126,"count":68,"max":[0.75,0.34375,0.375],"min":[-0.75,0.15625,-0.375],"type":"VEC3"},{"bufferView":1,"componentType":5126,"count":68,"max":[1,1,1],"min":[-1,-1,-1],"type":"VEC3"},{"bufferView":2,"componentType":5126,"count":68,"max":[1.5,0.75],"min":[0,0],"type":"VEC2"},{"bufferView":3,"componentType":5123,"count":102,"max":[67],"min":[0],"type":"SCALAR"},{"bufferView":4,"componentType":5126,"count":60,"max":[0.0625,0.96875,0.0625],"min":[-0.0625,-0.46875,-0.0625],"type":"VEC3"},{"bufferView":5,"componentType":5126,"count":60,"max":[0.8944271802902222,1,1],"min":[-0.8944271802902222,-1,-1],"type":"VEC3"},{"bufferView":6,"componentType":5126,"count":60,"max":[0.5773500204086304,0.5],"min":[0,0],"type":"VEC2"},{"bufferView":7,"componentType":5123,"count":72,"max":[59],"min":[0],"type":"SCALAR"},{"bufferView":8,"componentType":5126,"count":60,"max":[0.0625,0.96875,0.0625],"min":[-0.0625,-0.46875,-0.0625],"type":"VEC3"},{"bufferView":9,"componentType":5126,"count":60,"max":[0.8944271802902222,1,1],"min":[-0.8944271802902222,-1,-1],"type":"VEC3"},{"bufferView":10,"componentType":5126,"count":60,"max":[0.5773500204086304,0.5],"min":[0,0],"type":"VEC2"},{"bufferView":11,"componentType":5123,"count":72,"max":[59],"min":[0],"type":"SCALAR"}],"materials":[{"pbrMetallicRoughness":{"metallicFactor":0,"roughnessFactor":1},"alphaMode":"MASK","alphaCutoff":0.05,"doubleSided":true}],"meshes":[{"primitives":[{"mode":4,"attributes":{"POSITION":0,"NORMAL":1,"TEXCOORD_0":2},"indices":3,"material":0}]},{"primitives":[{"mode":4,"attributes":{"POSITION":4,"NORMAL":5,"TEXCOORD_0":6},"indices":7,"material":0}]},{"primitives":[{"mode":4,"attributes":{"POSITION":8,"NORMAL":9,"TEXCOORD_0":10},"indices":11,"material":0}]}]}