{"asset":{"version":"2.0","generator":"Blockbench 4.10.4 glTF exporter"},"scenes":[{"nodes":[4],"name":"blockbench_export"}],"scene":0,"nodes":[{"name":"cylinder","mesh":0},{"name":"cylinder_selection","mesh":1},{"translation":[0,0.0625,0],"name":"cylinder_selection","mesh":2},{"translation":[0,0.8125,0],"name":"cone","mesh":3},{"children":[0,1,2,3]}],"bufferViews":[{"buffer":0,"byteOffset":0,"byteLength":504,"target":34962,"byteStride":12},{"buffer":0,"byteOffset":504,"byteLength":504,"target":34962,"byteStride":12},{"buffer":0,"byteOffset":1008,"byteLength":336,"target":34962,"byteStride":8},{"buffer":0,"byteOffset":1344,"byteLength":108,"target":34963},{"buffer":0,"byteOffset":1452,"byteLength":600,"target":34962,"byteStride":12},{"buffer":0,"byteOffset":2052,"byteLength":600,"target":34962,"byteStride":12},{"buffer":0,"byteOffset":2652,"byteLength":400,"target":34962,"byteStride":8},{"buffer":0,"byteOffset":3052,"byteLength":132,"target":34963},{"buffer":0,"byteOffset":3184,"byteLength":600,"target":34962,"byteStride":12},{"buffer":0,"byteOffset":3784,"byteLength":600,"target":34962,"byteStride":12},{"buffer":0,"byteOffset":4384,"byteLength":400,"target":34962,"byteStride":8},{"buffer":0,"byteOffset":4784,"byteLength":132,"target":34963},{"buffer":0,"byteOffset":4916,"byteLength":432,"target":34962,"byteStride":12},{"buffer":0,"byteOffset":5348,"byteLength":432,"target":34962,"byteStride":12},{"buffer":0,"byteOffset":5780,"byteLength":288,"target":34962,"byteStride":8},{"buffer":0,"byteOffset":6068,"byteLength":72,"target":34963}],"buffers":[{"byteLength":6140,"uri":"data:application/octet-stream;base64,"}],"accessors":[{"bufferView":0,"componentType":5126,"count":42,"max":[0.140625,0.5,0.125],"min":[-0.140625,0,-0.125],"type":"VEC3"},{"bufferView":1,"componentType":5126,"count":42,"max":[0.8715755343437195,0,1],"min":[-0.8715755343437195,-1,-1],"type":"VEC3"},{"bufferView":2,"componentType":5126,"count":42,"max":[0.5773500204086304,0.5],"min":[0,0],"type":"VEC2"},{"bufferView":3,"componentType":5123,"count":54,"max":[41],"min":[0],"type":"SCALAR"},{"bufferView":4,"componentType":5126,"count":50,"max":[0.15625,0.609375,0.140625],"min":[-0.15625,0.484375,-0.140625],"type":"VEC3"},{"bufferView":5,"componentType":5126,"count":50,"max":[0.8741572499275208,1,1],"min":[-0.8741572499275208,-1,-1],"type":"VEC3"},{"bufferView":6,"componentType":5126,"count":50,"max":[0.5773500204086304,0.5],"min":[0,0],"type":"VEC2"},{"bufferView":7,"componentType":5123,"count":66,"max":[49],"min":[0],"type":"SCALAR"},{"bufferView":8,"componentType":5126,"count":50,"max":[0.078125,0.578125,0.0703125],"min":[-0.078125,0.515625,-0.0703125],"type":"VEC3"},{"bufferView":9,"componentType":5126,"count":50,"max":[0.8741572499275208,1,1],"min":[-0.8741572499275208,-1,-1],"type":"VEC3"},{"bufferView":10,"componentType":5126,"count":50,"max":[0.5773500204086304,0.5],"min":[0,0],"type":"VEC2"},{"bufferView":11,"componentType":5123,"count":66,"max":[49],"min":[0],"type":"SCALAR"},{"bufferView":12,"componentType":5126,"count":36,"max":[0.05058756843209267,0,0.03125],"min":[-0.05058756843209267,-0.1875,-0.03125],"type":"VEC3"},{"bufferView":13,"componentType":5126,"count":36,"max":[0.7607428431510925,0.20524869859218597,0.986393928527832],"min":[-0.7607428431510925,-1,-0.986393928527832],"type":"VEC3"},{"bufferView":14,"componentType":5126,"count":36,"max":[0.1443375051021576,0.5153875350952148],"min":[0,0],"type":"VEC2"},{"bufferView":15,"componentType":5123,"count":36,"max":[35],"min":[0],"type":"SCALAR"}],"materials":[{"pbrMetallicRoughness":{"metallicFactor":0,"roughnessFactor":1},"alphaMode":"MASK","alphaCutoff":0.05,"doubleSided":true}],"meshes":[{"primitives":[{"mode":4,"attributes":{"POSITION":0,"NORMAL":1,"TEXCOORD_0":2},"indices":3,"material":0}]},{"primitives":[{"mode":4,"attributes":{"POSITION":4,"NORMAL":5,"TEXCOORD_0":6},"indices":7,"material":0}]},{"primitives":[{"mode":4,"attributes":{"POSITION":8,"NORMAL":9,"TEXCOORD_0":10},"indices":11,"material":0}]},{"primitives":[{"mode":4,"attributes":{"POSITION":12,"NORMAL":13,"TEXCOORD_0":14},"indices":15,"material":0}]}]}