{"asset":{"version":"2.0","generator":"Blockbench 4.10.4 glTF exporter"},"scenes":[{"nodes":[28],"name":"blockbench_export"}],"scene":0,"nodes":[{"rotation":[-0.7071067811865475,0,0,0.7071067811865476],"translation":[0,-0.28125,0.0625],"name":"cuboid","mesh":0},{"translation":[0,0.6875,0.375],"name":"Wall_TV","children":[0]},{"rotation":[-0.15212338618991667,0,0,0.9883615104677607],"name":"cuboid","mesh":1},{"translation":[0,0.5625,-0.0625],"name":"TV_Stand","children":[2]},{"translation":[0.125,-0.0625,0],"name":"cylinder","mesh":2},{"translation":[-0.125,0.3125,0.0625],"name":"salt","children":[4]},{"translation":[-0.125,0.0625,0],"name":"cylinder","mesh":3},{"translation":[0,0.25,0.0625],"name":"Pepper","children":[6]},{"rotation":[0,0,-0.7071067811865475,0.7071067811865476],"translation":[-0.046875,0.015625,0],"name":"tube","mesh":4},{"translation":[0.046875,0.234375,0.0625],"name":"painting_frame","children":[8]},{"rotation":[0,0,-0.7071067811865475,0.7071067811865476],"name":"plane","mesh":5},{"translation":[0.046875,0.234375,0.0625],"name":"painting2","children":[10]},{"translation":[0.0625,-0.3125,0.5],"name":"cuboid","mesh":6},{"translation":[0,0.375,-0.25],"name":"spatula","children":[12]},{"rotation":[0,-0.06540312923014306,0,0.9978589232386035],"name":"sphere","mesh":7},{"translation":[0,0.375,-0.25],"name":"ladle","children":[14]},{"rotation":[-0.4999999844630443,-0.4999999857629981,-0.5000000155369606,0.500000014236996],"translation":[-0.4583333333333335,-0.33125,-1.0625],"name":"cuboid","mesh":8},{"translation":[0,0.40625,0.6875],"name":"pan","children":[16]},{"translation":[0,-0.40625,-0.5],"name":"cylinder","mesh":9},{"translation":[0,0.40625,0.6875],"name":"pot","children":[18]},{"translation":[0,0,-0.5],"name":"cylinder","mesh":10},{"translation":[0,0.40625,0.6875],"name":"pot_lid","children":[20]},{"translation":[0.5,-0.5,-0.375],"name":"cuboid","mesh":11},{"translation":[-0.5,0.5,0.375],"name":"cabinet","children":[22]},{"translation":[0.0625,-0.25,-0.5625],"name":"cuboid","mesh":12},{"translation":[-0.5,0.5,0.375],"name":"door_back","children":[24]},{"rotation":[0,0,-0.7071067811865475,0.7071067811865476],"translation":[0.009615384615384637,0,-0.3076923076923077],"name":"cylinder","mesh":13},{"translation":[-0.5,0.5,0.375],"name":"door_front","children":[26]},{"children":[1,3,5,7,9,11,13,15,17,19,21,23,25,27]}],"bufferViews":[{"buffer":0,"byteOffset":0,"byteLength":3840,"target":34962,"byteStride":12},{"buffer":0,"byteOffset":3840,"byteLength":3840,"target":34962,"byteStride":12},{"buffer":0,"byteOffset":7680,"byteLength":2560,"target":34962,"byteStride":8},{"buffer":0,"byteOffset":10240,"byteLength":816,"target":34963},{"buffer":0,"byteOffset":11056,"byteLength":14976,"target":34962,"byteStride":12},{"buffer":0,"byteOffset":26032,"byteLength":14976,"target":34962,"byteStride":12},{"buffer":0,"byteOffset":41008,"byteLength":9984,"target":34962,"byteStride":8},{"buffer":0,"byteOffset":50992,"byteLength":3744,"target":34963},{"buffer":0,"byteOffset":54736,"byteLength":3024,"target":34962,"byteStride":12},{"buffer":0,"byteOffset":57760,"byteLength":3024,"target":34962,"byteStride":12},{"buffer":0,"byteOffset":60784,"byteLength":2016,"target":34962,"byteStride":8},{"buffer":0,"byteOffset":62800,"byteLength":672,"target":34963},{"buffer":0,"byteOffset":63472,"byteLength":3024,"target":34962,"byteStride":12},{"buffer":0,"byteOffset":66496,"byteLength":3024,"target":34962,"byteStride":12},{"buffer":0,"byteOffset":69520,"byteLength":2016,"target":34962,"byteStride":8},{"buffer":0,"byteOffset":71536,"byteLength":672,"target":34963},{"buffer":0,"byteOffset":72208,"byteLength":768,"target":34962,"byteStride":12},{"buffer":0,"byteOffset":72976,"byteLength":768,"target":34962,"byteStride":12},{"buffer":0,"byteOffset":73744,"byteLength":512,"target":34962,"byteStride":8},{"buffer":0,"byteOffset":74256,"byteLength":192,"target":34963},{"buffer":0,"byteOffset":74448,"byteLength":48,"target":34962,"byteStride":12},{"buffer":0,"byteOffset":74496,"byteLength":48,"target":34962,"byteStride":12},{"buffer":0,"byteOffset":74544,"byteLength":32,"target":34962,"byteStride":8},{"buffer":0,"byteOffset":74576,"byteLength":12,"target":34963},{"buffer":0,"byteOffset":74588,"byteLength":1320,"target":34962,"byteStride":12},{"buffer":0,"byteOffset":75908,"byteLength":1320,"target":34962,"byteStride":12},{"buffer":0,"byteOffset":77228,"byteLength":880,"target":34962,"byteStride":8},{"buffer":0,"byteOffset":78108,"byteLength":288,"target":34963},{"buffer":0,"byteOffset":78396,"byteLength":3576,"target":34962,"byteStride":12},{"buffer":0,"byteOffset":81972,"byteLength":3576,"target":34962,"byteStride":12},{"buffer":0,"byteOffset":85548,"byteLength":2384,"target":34962,"byteStride":8},{"buffer":0,"byteOffset":87932,"byteLength":852,"target":34963},{"buffer":0,"byteOffset":88784,"byteLength":3096,"target":34962,"byteStride":12},{"buffer":0,"byteOffset":91880,"byteLength":3096,"target":34962,"byteStride":12},{"buffer":0,"byteOffset":94976,"byteLength":2064,"target":34962,"byteStride":8},{"buffer":0,"byteOffset":97040,"byteLength":732,"target":34963},{"buffer":0,"byteOffset":97772,"byteLength":5256,"target":34962,"byteStride":12},{"buffer":0,"byteOffset":103028,"byteLength":5256,"target":34962,"byteStride":12},{"buffer":0,"byteOffset":108284,"byteLength":3504,"target":34962,"byteStride":8},{"buffer":0,"byteOffset":111788,"byteLength":1272,"target":34963},{"buffer":0,"byteOffset":113060,"byteLength":3360,"target":34962,"byteStride":12},{"buffer":0,"byteOffset":116420,"byteLength":3360,"target":34962,"byteStride":12},{"buffer":0,"byteOffset":119780,"byteLength":2240,"target":34962,"byteStride":8},{"buffer":0,"byteOffset":122020,"byteLength":756,"target":34963},{"buffer":0,"byteOffset":122776,"byteLength":1920,"target":34962,"byteStride":12},{"buffer":0,"byteOffset":124696,"byteLength":1920,"target":34962,"byteStride":12},{"buffer":0,"byteOffset":126616,"byteLength":1280,"target":34962,"byteStride":8},{"buffer":0,"byteOffset":127896,"byteLength":480,"target":34963},{"buffer":0,"byteOffset":128376,"byteLength":288,"target":34962,"byteStride":12},{"buffer":0,"byteOffset":128664,"byteLength":288,"target":34962,"byteStride":12},{"buffer":0,"byteOffset":128952,"byteLength":192,"target":34962,"byteStride":8},{"buffer":0,"byteOffset":129144,"byteLength":72,"target":34963},{"buffer":0,"byteOffset":129216,"byteLength":1248,"target":34962,"byteStride":12},{"buffer":0,"byteOffset":130464,"byteLength":1248,"target":34962,"byteStride":12},{"buffer":0,"byteOffset":131712,"byteLength":832,"target":34962,"byteStride":8},{"buffer":0,"byteOffset":132544,"byteLength":264,"target":34963}],"buffers":[{"byteLength":132808,"uri":"data:application/octet-stream;base64,"}],"accessors":[{"bufferView":0,"componentType":5126,"count":320,"max":[0.125,0.5625,0.34375],"min":[-0.125,0.0546875,-0.15625],"type":"VEC3"},{"bufferView":1,"componentType":5126,"count":320,"max":[1,1,1],"min":[-1,-1,-1],"type":"VEC3"},{"bufferView":2,"componentType":5126,"count":320,"max":[0.5,0.5],"min":[0,0],"type":"VEC2"},{"bufferView":3,"componentType":5123,"count":408,"max":[319],"min":[0],"type":"SCALAR"},{"bufferView":4,"componentType":5126,"count":1248,"max":[0.375,0.5625,0.25],"min":[-0.390625,-0.08941096067428589,-0.21569116413593292],"type":"VEC3"},{"bufferView":5,"componentType":5126,"count":1248,"max":[1,1,1],"min":[-1,-1,-1],"type":"VEC3"},{"bufferView":6,"componentType":5126,"count":1248,"max":[0.75,0.75],"min":[0,0],"type":"VEC2"},{"bufferView":7,"componentType":5123,"count":1872,"max":[1247],"min":[0],"type":"SCALAR"},{"bufferView":8,"componentType":5126,"count":252,"max":[0.03381526097655296,0.09375,0.03125],"min":[-0.03381526097655296,-0.015625,-0.03468488156795502],"type":"VEC3"},{"bufferView":9,"componentType":5126,"count":252,"max":[0.9761252999305725,1,1],"min":[-0.9761252999305725,-1,-0.9009688496589661],"type":"VEC3"},{"bufferView":10,"componentType":5126,"count":252,"max":[0.03468233346939087,0.125],"min":[0,0],"type":"VEC2"},{"bufferView":11,"componentType":5123,"count":336,"max":[251],"min":[0],"type":"SCALAR"},{"bufferView":12,"componentType":5126,"count":252,"max":[0.03381526097655296,0.03125,0.03125],"min":[-0.03381526097655296,-0.078125,-0.03468488156795502],"type":"VEC3"},{"bufferView":13,"componentType":5126,"count":252,"max":[0.9761252999305725,1,1],"min":[-0.9761252999305725,-1,-0.9009688496589661],"type":"VEC3"},{"bufferView":14,"componentType":5126,"count":252,"max":[0.03468233346939087,0.125],"min":[0,0],"type":"VEC2"},{"bufferView":15,"componentType":5123,"count":336,"max":[251],"min":[0],"type":"SCALAR"},{"bufferView":16,"componentType":5126,"count":64,"max":[0.405330091714859,0.078125,0.5625],"min":[-0.405330091714859,0,-0.5625],"type":"VEC3"},{"bufferView":17,"componentType":5126,"count":64,"max":[1,1,1],"min":[-1,-0.9832391738891602,-1],"type":"VEC3"},{"bufferView":18,"componentType":5126,"count":64,"max":[0.9356625080108643,0.9356625080108643],"min":[0,0],"type":"VEC2"},{"bufferView":19,"componentType":5123,"count":96,"max":[63],"min":[0],"type":"SCALAR"},{"bufferView":20,"componentType":5126,"count":4,"max":[0.375,0,0.5],"min":[-0.375,0,-0.5],"type":"VEC3"},{"bufferView":21,"componentType":5126,"count":4,"max":[0,1,0],"min":[0,1,0],"type":"VEC3"},{"bufferView":22,"componentType":5126,"count":4,"max":[0.875,0.875],"min":[0,0],"type":"VEC2"},{"bufferView":23,"componentType":5123,"count":6,"max":[3],"min":[0],"type":"SCALAR"},{"bufferView":24,"componentType":5126,"count":110,"max":[0.21875,0.32167282700538635,0.09375],"min":[-0.732269823551178,0,-0.09375],"type":"VEC3"},{"bufferView":25,"componentType":5126,"count":110,"max":[1,1,1],"min":[-0.9238795042037964,-1,-1],"type":"VEC3"},{"bufferView":26,"componentType":5126,"count":110,"max":[0.5625,0.5625],"min":[0,0],"type":"VEC2"},{"bufferView":27,"componentType":5123,"count":144,"max":[109],"min":[0],"type":"SCALAR"},{"bufferView":28,"componentType":5126,"count":298,"max":[0.19726817309856415,0.6537821292877197,0.1775618940591812],"min":[-0.3584318459033966,-0.1875,-0.20394860208034515],"type":"VEC3"},{"bufferView":29,"componentType":5126,"count":298,"max":[0.9914448857307434,0.9950380921363831,0.9914448857307434],"min":[-0.9914448857307434,-1,-0.9914448857307434],"type":"VEC3"},{"bufferView":30,"componentType":5126,"count":298,"max":[0.27088749408721924,0.5],"min":[0,0],"type":"VEC2"},{"bufferView":31,"componentType":5123,"count":426,"max":[297],"min":[0],"type":"SCALAR"},{"bufferView":32,"componentType":5126,"count":258,"max":[0.3034042716026306,0.703512966632843,0.06096017360687256],"min":[-0.298057496547699,-0.28956061601638794,-0.059375014156103134],"type":"VEC3"},{"bufferView":33,"componentType":5126,"count":258,"max":[1,1,1],"min":[-1,-0.9999871253967285,-1],"type":"VEC3"},{"bufferView":34,"componentType":5126,"count":258,"max":[0.2478187531232834,0.4375],"min":[0,0],"type":"VEC2"},{"bufferView":35,"componentType":5123,"count":366,"max":[257],"min":[0],"type":"SCALAR"},{"bufferView":36,"componentType":5126,"count":438,"max":[0.33424460887908936,0.3972560167312622,0.21875],"min":[-0.33424460887908936,0,-0.2427941858768463],"type":"VEC3"},{"bufferView":37,"componentType":5126,"count":438,"max":[0.9809780120849609,1,1],"min":[-0.9809780120849609,-1,-1],"type":"VEC3"},{"bufferView":38,"componentType":5126,"count":438,"max":[0.2427932173013687,0.375],"min":[0,0],"type":"VEC2"},{"bufferView":39,"componentType":5123,"count":636,"max":[437],"min":[0],"type":"SCALAR"},{"bufferView":40,"componentType":5126,"count":280,"max":[0.21875,0.05312500149011612,0.20844535529613495],"min":[-0.21875,-0.046875,-0.22905464470386505],"type":"VEC3"},{"bufferView":41,"componentType":5126,"count":280,"max":[0.9761252999305725,1,1],"min":[-0.9761252999305725,-1,-0.8965831398963928],"type":"VEC3"},{"bufferView":42,"componentType":5126,"count":280,"max":[0.243087500333786,0.20810866355895996],"min":[0,0],"type":"VEC2"},{"bufferView":43,"componentType":5123,"count":378,"max":[279],"min":[0],"type":"SCALAR"},{"bufferView":44,"componentType":5126,"count":160,"max":[0.5,1,0.5],"min":[-0.5,0,-0.5],"type":"VEC3"},{"bufferView":45,"componentType":5126,"count":160,"max":[1,1,1],"min":[-1,-1,-1],"type":"VEC3"},{"bufferView":46,"componentType":5126,"count":160,"max":[1,1],"min":[0,0],"type":"VEC2"},{"bufferView":47,"componentType":5123,"count":240,"max":[159],"min":[0],"type":"SCALAR"},{"bufferView":48,"componentType":5126,"count":24,"max":[0.015625,0.6875,0.25],"min":[-0.015625,-0.1875,-0.25],"type":"VEC3"},{"bufferView":49,"componentType":5126,"count":24,"max":[1,1,1],"min":[-1,-1,-1],"type":"VEC3"},{"bufferView":50,"componentType":5126,"count":24,"max":[0.9375,0.9375],"min":[0,0],"type":"VEC2"},{"bufferView":51,"componentType":5123,"count":36,"max":[23],"min":[0],"type":"SCALAR"},{"bufferView":52,"componentType":5126,"count":104,"max":[0.4375,0.03725961595773697,0.12019230425357819],"min":[-0.4375,-0.04086538404226303,-0.3798076808452606],"type":"VEC3"},{"bufferView":53,"componentType":5126,"count":104,"max":[1,1,1],"min":[-1,-1,-1],"type":"VEC3"},{"bufferView":54,"componentType":5126,"count":104,"max":[0.9375,0.9375],"min":[0,0],"type":"VEC2"},{"bufferView":55,"componentType":5123,"count":132,"max":[103],"min":[0],"type":"SCALAR"}],"materials":[{"pbrMetallicRoughness":{"metallicFactor":0,"roughnessFactor":1},"alphaMode":"MASK","alphaCutoff":0.05,"doubleSided":true},{"pbrMetallicRoughness":{"metallicFactor":0,"roughnessFactor":1},"alphaMode":"MASK","alphaCutoff":0.05,"doubleSided":true},{"pbrMetallicRoughness":{"metallicFactor":0,"roughnessFactor":1},"alphaMode":"MASK","alphaCutoff":0.05,"doubleSided":true},{"pbrMetallicRoughness":{"metallicFactor":0,"roughnessFactor":1},"alphaMode":"MASK","alphaCutoff":0.05,"doubleSided":true},{"pbrMetallicRoughness":{"metallicFactor":0,"roughnessFactor":1},"alphaMode":"MASK","alphaCutoff":0.05,"doubleSided":true}],"meshes":[{"primitives":[{"mode":4,"attributes":{"POSITION":0,"NORMAL":1,"TEXCOORD_0":2},"indices":3,"material":0}]},{"primitives":[{"mode":4,"attributes":{"POSITION":4,"NORMAL":5,"TEXCOORD_0":6},"indices":7,"material":0}]},{"primitives":[{"mode":4,"attributes":{"POSITION":8,"NORMAL":9,"TEXCOORD_0":10},"indices":11,"material":1}]},{"primitives":[{"mode":4,"attributes":{"POSITION":12,"NORMAL":13,"TEXCOORD_0":14},"indices":15,"material":2}]},{"primitives":[{"mode":4,"attributes":{"POSITION":16,"NORMAL":17,"TEXCOORD_0":18},"indices":19,"material":1}]},{"primitives":[{"mode":4,"attributes":{"POSITION":20,"NORMAL":21,"TEXCOORD_0":22},"indices":23,"material":3}]},{"primitives":[{"mode":4,"attributes":{"POSITION":24,"NORMAL":25,"TEXCOORD_0":26},"indices":27,"material":1}]},{"primitives":[{"mode":4,"attributes":{"POSITION":28,"NORMAL":29,"TEXCOORD_0":30},"indices":31,"material":4}]},{"primitives":[{"mode":4,"attributes":{"POSITION":32,"NORMAL":33,"TEXCOORD_0":34},"indices":35,"material":3}]},{"primitives":[{"mode":4,"attributes":{"POSITION":36,"NORMAL":37,"TEXCOORD_0":38},"indices":39,"material":3}]},{"primitives":[{"mode":4,"attributes":{"POSITION":40,"NORMAL":41,"TEXCOORD_0":42},"indices":43,"material":3}]},{"primitives":[{"mode":4,"attributes":{"POSITION":44,"NORMAL":45,"TEXCOORD_0":46},"indices":47,"material":1}]},{"primitives":[{"mode":4,"attributes":{"POSITION":48,"NORMAL":49,"TEXCOORD_0":50},"indices":51,"material":1}]},{"primitives":[{"mode":4,"attributes":{"POSITION":52,"NORMAL":53,"TEXCOORD_0":54},"indices":55,"material":1}]}]}