{"asset":{"version":"2.0","generator":"Blockbench 4.10.4 glTF exporter"},"scenes":[{"nodes":[3],"name":"blockbench_export"}],"scene":0,"nodes":[{"name":"cuboid","mesh":0},{"translation":[-0.1875,0.375,-0.625],"name":"cylinder","mesh":1},{"translation":[-0.1875,0.25,-0.625],"name":"cylinder_selection","mesh":2},{"children":[0,1,2]}],"bufferViews":[{"buffer":0,"byteOffset":0,"byteLength":2496,"target":34962,"byteStride":12},{"buffer":0,"byteOffset":2496,"byteLength":2496,"target":34962,"byteStride":12},{"buffer":0,"byteOffset":4992,"byteLength":1664,"target":34962,"byteStride":8},{"buffer":0,"byteOffset":6656,"byteLength":612,"target":34963},{"buffer":0,"byteOffset":7268,"byteLength":2880,"target":34962,"byteStride":12},{"buffer":0,"byteOffset":10148,"byteLength":2880,"target":34962,"byteStride":12},{"buffer":0,"byteOffset":13028,"byteLength":1920,"target":34962,"byteStride":8},{"buffer":0,"byteOffset":14948,"byteLength":576,"target":34963},{"buffer":0,"byteOffset":15524,"byteLength":792,"target":34962,"byteStride":12},{"buffer":0,"byteOffset":16316,"byteLength":792,"target":34962,"byteStride":12},{"buffer":0,"byteOffset":17108,"byteLength":528,"target":34962,"byteStride":8},{"buffer":0,"byteOffset":17636,"byteLength":180,"target":34963}],"buffers":[{"byteLength":17816,"uri":"data:application/octet-stream;base64,"}],"accessors":[{"bufferView":0,"componentType":5126,"count":208,"max":[0.5,1.375,0.5],"min":[-0.5,0,-0.875],"type":"VEC3"},{"bufferView":1,"componentType":5126,"count":208,"max":[1,1,1],"min":[-1,-1,-1],"type":"VEC3"},{"bufferView":2,"componentType":5126,"count":208,"max":[1,1],"min":[0,0],"type":"VEC2"},{"bufferView":3,"componentType":5123,"count":306,"max":[207],"min":[0],"type":"SCALAR"},{"bufferView":4,"componentType":5126,"count":240,"max":[0.6328125,0.328125,0.0625],"min":[-0.2578125,0.203125,-0.0625],"type":"VEC3"},{"bufferView":5,"componentType":5126,"count":240,"max":[0.8715755343437195,1,1],"min":[-0.8715755343437195,-0.7071067690849304,-1],"type":"VEC3"},{"bufferView":6,"componentType":5126,"count":240,"max":[0.5773500204086304,0.5],"min":[0,0],"type":"VEC2"},{"bufferView":7,"componentType":5123,"count":288,"max":[239],"min":[0],"type":"SCALAR"},{"bufferView":8,"componentType":5126,"count":66,"max":[0.265625,0.453125,0.125],"min":[0.109375,0.203125,-0.0625],"type":"VEC3"},{"bufferView":9,"componentType":5126,"count":66,"max":[0.847998321056366,0.8320503234863281,1],"min":[-0.847998321056366,-1,-1],"type":"VEC3"},{"bufferView":10,"componentType":5126,"count":66,"max":[0.5773500204086304,0.5],"min":[0,0],"type":"VEC2"},{"bufferView":11,"componentType":5123,"count":90,"max":[65],"min":[0],"type":"SCALAR"}],"materials":[{"pbrMetallicRoughness":{"metallicFactor":0,"roughnessFactor":1},"alphaMode":"MASK","alphaCutoff":0.05,"doubleSided":true}],"meshes":[{"primitives":[{"mode":4,"attributes":{"POSITION":0,"NORMAL":1,"TEXCOORD_0":2},"indices":3,"material":0}]},{"primitives":[{"mode":4,"attributes":{"POSITION":4,"NORMAL":5,"TEXCOORD_0":6},"indices":7,"material":0}]},{"primitives":[{"mode":4,"attributes":{"POSITION":8,"NORMAL":9,"TEXCOORD_0":10},"indices":11,"material":0}]}]}