{"asset":{"version":"2.0","generator":"Blockbench 4.10.4 glTF exporter"},"scenes":[{"nodes":[4],"name":"blockbench_export"}],"scene":0,"nodes":[{"translation":[0,0.75,0],"name":"cuboid","mesh":0},{"translation":[-2.7755575615628914e-17,1.3576395833333332,-0.5625],"name":"cuboid","mesh":1},{"translation":[-2.7755575615628914e-17,0.7187520833333336,-0.5625],"name":"cuboid","mesh":2},{"translation":[-2.7755575615628914e-17,0.07986099536747693,-0.5625],"name":"cuboid","mesh":3},{"children":[0,1,2,3]}],"bufferViews":[{"buffer":0,"byteOffset":0,"byteLength":4080,"target":34962,"byteStride":12},{"buffer":0,"byteOffset":4080,"byteLength":4080,"target":34962,"byteStride":12},{"buffer":0,"byteOffset":8160,"byteLength":2720,"target":34962,"byteStride":8},{"buffer":0,"byteOffset":10880,"byteLength":1020,"target":34963},{"buffer":0,"byteOffset":11900,"byteLength":1248,"target":34962,"byteStride":12},{"buffer":0,"byteOffset":13148,"byteLength":1248,"target":34962,"byteStride":12},{"buffer":0,"byteOffset":14396,"byteLength":832,"target":34962,"byteStride":8},{"buffer":0,"byteOffset":15228,"byteLength":312,"target":34963},{"buffer":0,"byteOffset":15540,"byteLength":1248,"target":34962,"byteStride":12},{"buffer":0,"byteOffset":16788,"byteLength":1248,"target":34962,"byteStride":12},{"buffer":0,"byteOffset":18036,"byteLength":832,"target":34962,"byteStride":8},{"buffer":0,"byteOffset":18868,"byteLength":312,"target":34963},{"buffer":0,"byteOffset":19180,"byteLength":1248,"target":34962,"byteStride":12},{"buffer":0,"byteOffset":20428,"byteLength":1248,"target":34962,"byteStride":12},{"buffer":0,"byteOffset":21676,"byteLength":832,"target":34962,"byteStride":8},{"buffer":0,"byteOffset":22508,"byteLength":312,"target":34963}],"buffers":[{"byteLength":22820,"uri":"data:application/octet-stream;base64,"}],"accessors":[{"bufferView":0,"componentType":5126,"count":340,"max":[0.5,1.25,0.5],"min":[-0.5,-0.75,-0.53125],"type":"VEC3"},{"bufferView":1,"componentType":5126,"count":340,"max":[1,1,1],"min":[-1,-1,-1],"type":"VEC3"},{"bufferView":2,"componentType":5126,"count":340,"max":[1,2],"min":[0,0],"type":"VEC2"},{"bufferView":3,"componentType":5123,"count":510,"max":[339],"min":[0],"type":"SCALAR"},{"bufferView":4,"componentType":5126,"count":104,"max":[0.15625,0.28125,0.0625],"min":[-0.15625,0.21875,-0.0625],"type":"VEC3"},{"bufferView":5,"componentType":5126,"count":104,"max":[1,1,1],"min":[-1,-1,-1],"type":"VEC3"},{"bufferView":6,"componentType":5126,"count":104,"max":[1,1],"min":[0,0],"type":"VEC2"},{"bufferView":7,"componentType":5123,"count":156,"max":[103],"min":[0],"type":"SCALAR"},{"bufferView":8,"componentType":5126,"count":104,"max":[0.15625,0.28125,0.0625],"min":[-0.15625,0.21875,-0.0625],"type":"VEC3"},{"bufferView":9,"componentType":5126,"count":104,"max":[1,1,1],"min":[-1,-1,-1],"type":"VEC3"},{"bufferView":10,"componentType":5126,"count":104,"max":[1,1],"min":[0,0],"type":"VEC2"},{"bufferView":11,"componentType":5123,"count":156,"max":[103],"min":[0],"type":"SCALAR"},{"bufferView":12,"componentType":5126,"count":104,"max":[0.15625,0.28125,0.0625],"min":[-0.15625,0.21875,-0.0625],"type":"VEC3"},{"bufferView":13,"componentType":5126,"count":104,"max":[1,1,1],"min":[-1,-1,-1],"type":"VEC3"},{"bufferView":14,"componentType":5126,"count":104,"max":[1,1],"min":[0,0],"type":"VEC2"},{"bufferView":15,"componentType":5123,"count":156,"max":[103],"min":[0],"type":"SCALAR"}],"materials":[{"pbrMetallicRoughness":{"metallicFactor":0,"roughnessFactor":1},"alphaMode":"MASK","alphaCutoff":0.05,"doubleSided":true}],"meshes":[{"primitives":[{"mode":4,"attributes":{"POSITION":0,"NORMAL":1,"TEXCOORD_0":2},"indices":3,"material":0}]},{"primitives":[{"mode":4,"attributes":{"POSITION":4,"NORMAL":5,"TEXCOORD_0":6},"indices":7,"material":0}]},{"primitives":[{"mode":4,"attributes":{"POSITION":8,"NORMAL":9,"TEXCOORD_0":10},"indices":11,"material":0}]},{"primitives":[{"mode":4,"attributes":{"POSITION":12,"NORMAL":13,"TEXCOORD_0":14},"indices":15,"material":0}]}]}