{"asset":{"version":"2.0","generator":"Blockbench 4.10.4 glTF exporter"},"scenes":[{"nodes":[3],"name":"blockbench_export"}],"scene":0,"nodes":[{"name":"cuboid","mesh":0},{"translation":[0,-0.125,0.03125],"name":"cuboid_selection_selection","mesh":1},{"translation":[0,-0.0625,0],"name":"cuboid_selection","mesh":2},{"children":[0,1,2]}],"bufferViews":[{"buffer":0,"byteOffset":0,"byteLength":240,"target":34962,"byteStride":12},{"buffer":0,"byteOffset":240,"byteLength":240,"target":34962,"byteStride":12},{"buffer":0,"byteOffset":480,"byteLength":160,"target":34962,"byteStride":8},{"buffer":0,"byteOffset":640,"byteLength":60,"target":34963},{"buffer":0,"byteOffset":700,"byteLength":768,"target":34962,"byteStride":12},{"buffer":0,"byteOffset":1468,"byteLength":768,"target":34962,"byteStride":12},{"buffer":0,"byteOffset":2236,"byteLength":512,"target":34962,"byteStride":8},{"buffer":0,"byteOffset":2748,"byteLength":192,"target":34963},{"buffer":0,"byteOffset":2940,"byteLength":768,"target":34962,"byteStride":12},{"buffer":0,"byteOffset":3708,"byteLength":768,"target":34962,"byteStride":12},{"buffer":0,"byteOffset":4476,"byteLength":512,"target":34962,"byteStride":8},{"buffer":0,"byteOffset":4988,"byteLength":192,"target":34963}],"buffers":[{"byteLength":5180,"uri":"data:application/octet-stream;base64,"}],"accessors":[{"bufferView":0,"componentType":5126,"count":20,"max":[0.375,0.4375,0.25],"min":[-0.375,0,-0.25],"type":"VEC3"},{"bufferView":1,"componentType":5126,"count":20,"max":[1,0,1],"min":[-1,-1,-1],"type":"VEC3"},{"bufferView":2,"componentType":5126,"count":20,"max":[1,1],"min":[0,0],"type":"VEC2"},{"bufferView":3,"componentType":5123,"count":30,"max":[19],"min":[0],"type":"SCALAR"},{"bufferView":4,"componentType":5126,"count":64,"max":[0.28125,0.75,0.046875],"min":[-0.28125,0.5625,-0.109375],"type":"VEC3"},{"bufferView":5,"componentType":5126,"count":64,"max":[1,1,0.9761870503425598],"min":[-1,-1,-0.9761870503425598],"type":"VEC3"},{"bufferView":6,"componentType":5126,"count":64,"max":[0.5,0.3125],"min":[0,0],"type":"VEC2"},{"bufferView":7,"componentType":5123,"count":96,"max":[63],"min":[0],"type":"SCALAR"},{"bufferView":8,"componentType":5126,"count":64,"max":[0.40625,0.5625,0.28125],"min":[-0.40625,0.4375,-0.28125],"type":"VEC3"},{"bufferView":9,"componentType":5126,"count":64,"max":[1,0.9892034530639648,1],"min":[-1,0,-1],"type":"VEC3"},{"bufferView":10,"componentType":5126,"count":64,"max":[1,1],"min":[0,0],"type":"VEC2"},{"bufferView":11,"componentType":5123,"count":96,"max":[63],"min":[0],"type":"SCALAR"}],"materials":[{"pbrMetallicRoughness":{"metallicFactor":0,"roughnessFactor":1},"alphaMode":"MASK","alphaCutoff":0.05,"doubleSided":true}],"meshes":[{"primitives":[{"mode":4,"attributes":{"POSITION":0,"NORMAL":1,"TEXCOORD_0":2},"indices":3,"material":0}]},{"primitives":[{"mode":4,"attributes":{"POSITION":4,"NORMAL":5,"TEXCOORD_0":6},"indices":7,"material":0}]},{"primitives":[{"mode":4,"attributes":{"POSITION":8,"NORMAL":9,"TEXCOORD_0":10},"indices":11,"material":0}]}]}