{"asset":{"version":"2.0","generator":"Blockbench 4.10.4 glTF exporter"},"scenes":[{"nodes":[2],"name":"blockbench_export"}],"scene":0,"nodes":[{"name":"cylinder","mesh":0},{"rotation":[0.4999999999999996,-0.4999999999999994,0.5000000000000003,0.5000000000000007],"translation":[0.25,1.1875,0],"name":"plane","mesh":1},{"children":[0,1]}],"bufferViews":[{"buffer":0,"byteOffset":0,"byteLength":1584,"target":34962,"byteStride":12},{"buffer":0,"byteOffset":1584,"byteLength":1584,"target":34962,"byteStride":12},{"buffer":0,"byteOffset":3168,"byteLength":1056,"target":34962,"byteStride":8},{"buffer":0,"byteOffset":4224,"byteLength":360,"target":34963},{"buffer":0,"byteOffset":4584,"byteLength":1344,"target":34962,"byteStride":12},{"buffer":0,"byteOffset":5928,"byteLength":1344,"target":34962,"byteStride":12},{"buffer":0,"byteOffset":7272,"byteLength":896,"target":34962,"byteStride":8},{"buffer":0,"byteOffset":8168,"byteLength":288,"target":34963}],"buffers":[{"byteLength":8456,"uri":"data:application/octet-stream;base64,"}],"accessors":[{"bufferView":0,"componentType":5126,"count":132,"max":[0.6300811767578125,0.7984131574630737,0.5456610321998596],"min":[-0.6300811767578125,0,-0.5456610321998596],"type":"VEC3"},{"bufferView":1,"componentType":5126,"count":132,"max":[0.8437822461128235,1,0.9743914008140564],"min":[-0.8437822461128235,-1,-0.9743914008140564],"type":"VEC3"},{"bufferView":2,"componentType":5126,"count":132,"max":[0.6300812363624573,0.6300750374794006],"min":[0,0],"type":"VEC2"},{"bufferView":3,"componentType":5123,"count":180,"max":[131],"min":[0],"type":"SCALAR"},{"bufferView":4,"componentType":5126,"count":112,"max":[0.75,1,0.5],"min":[-0.75,-0.5,-0.5],"type":"VEC3"},{"bufferView":5,"componentType":5126,"count":112,"max":[0.9645549058914185,0.9645549058914185,-0.10717276483774185],"min":[-0.9645549058914185,-0.9645549058914185,-0.7513054609298706],"type":"VEC3"},{"bufferView":6,"componentType":5126,"count":112,"max":[1,1],"min":[0.5,0],"type":"VEC2"},{"bufferView":7,"componentType":5123,"count":144,"max":[111],"min":[0],"type":"SCALAR"}],"materials":[{"pbrMetallicRoughness":{"metallicFactor":0,"roughnessFactor":1},"alphaMode":"MASK","alphaCutoff":0.05,"doubleSided":true}],"meshes":[{"primitives":[{"mode":4,"attributes":{"POSITION":0,"NORMAL":1,"TEXCOORD_0":2},"indices":3,"material":0}]},{"primitives":[{"mode":4,"attributes":{"POSITION":4,"NORMAL":5,"TEXCOORD_0":6},"indices":7,"material":0}]}]}