{"asset":{"version":"2.0","generator":"Blockbench 4.10.4 glTF exporter"},"scenes":[{"nodes":[3],"name":"blockbench_export"}],"scene":0,"nodes":[{"translation":[0,-0.4375,0],"name":"cuboid","mesh":0},{"translation":[0,0.6875,0],"name":"beveled_cuboid","mesh":1},{"translation":[0,0.4375,0],"name":"cylinder","mesh":2},{"children":[0,1,2]}],"bufferViews":[{"buffer":0,"byteOffset":0,"byteLength":288,"target":34962,"byteStride":12},{"buffer":0,"byteOffset":288,"byteLength":288,"target":34962,"byteStride":12},{"buffer":0,"byteOffset":576,"byteLength":192,"target":34962,"byteStride":8},{"buffer":0,"byteOffset":768,"byteLength":72,"target":34963},{"buffer":0,"byteOffset":840,"byteLength":672,"target":34962,"byteStride":12},{"buffer":0,"byteOffset":1512,"byteLength":672,"target":34962,"byteStride":12},{"buffer":0,"byteOffset":2184,"byteLength":448,"target":34962,"byteStride":8},{"buffer":0,"byteOffset":2632,"byteLength":168,"target":34963},{"buffer":0,"byteOffset":2800,"byteLength":720,"target":34962,"byteStride":12},{"buffer":0,"byteOffset":3520,"byteLength":720,"target":34962,"byteStride":12},{"buffer":0,"byteOffset":4240,"byteLength":480,"target":34962,"byteStride":8},{"buffer":0,"byteOffset":4720,"byteLength":144,"target":34963}],"buffers":[{"byteLength":4864,"uri":"data:application/octet-stream;base64,"}],"accessors":[{"bufferView":0,"componentType":5126,"count":24,"max":[0.3125,0.5,0.25],"min":[-0.3125,0.4375,-0.25],"type":"VEC3"},{"bufferView":1,"componentType":5126,"count":24,"max":[0.3713906705379486,1,0.4472135901451111],"min":[-0.3713906705379486,-1,-0.4472135901451111],"type":"VEC3"},{"bufferView":2,"componentType":5126,"count":24,"max":[1,1],"min":[0,0],"type":"VEC2"},{"bufferView":3,"componentType":5123,"count":36,"max":[23],"min":[0],"type":"SCALAR"},{"bufferView":4,"componentType":5126,"count":56,"max":[1.0625,0.296875,0.625],"min":[-1.0625,0.203125,-0.625],"type":"VEC3"},{"bufferView":5,"componentType":5126,"count":56,"max":[1,1,1],"min":[-1,-1,-1],"type":"VEC3"},{"bufferView":6,"componentType":5126,"count":56,"max":[0.75,1],"min":[0,0],"type":"VEC2"},{"bufferView":7,"componentType":5123,"count":84,"max":[55],"min":[0],"type":"SCALAR"},{"bufferView":8,"componentType":5126,"count":60,"max":[0.0625,0.53125,0.046875],"min":[-0.0625,-0.40625,-0.046875],"type":"VEC3"},{"bufferView":9,"componentType":5126,"count":60,"max":[0.8320503234863281,1,1],"min":[-0.8320503234863281,-1,-1],"type":"VEC3"},{"bufferView":10,"componentType":5126,"count":60,"max":[0.5773500204086304,0.5],"min":[0,0],"type":"VEC2"},{"bufferView":11,"componentType":5123,"count":72,"max":[59],"min":[0],"type":"SCALAR"}],"materials":[{"pbrMetallicRoughness":{"metallicFactor":0,"roughnessFactor":1},"alphaMode":"MASK","alphaCutoff":0.05,"doubleSided":true}],"meshes":[{"primitives":[{"mode":4,"attributes":{"POSITION":0,"NORMAL":1,"TEXCOORD_0":2},"indices":3,"material":0}]},{"primitives":[{"mode":4,"attributes":{"POSITION":4,"NORMAL":5,"TEXCOORD_0":6},"indices":7,"material":0}]},{"primitives":[{"mode":4,"attributes":{"POSITION":8,"NORMAL":9,"TEXCOORD_0":10},"indices":11,"material":0}]}]}