{"asset":{"version":"2.0","generator":"Blockbench 4.10.4 glTF exporter"},"scenes":[{"nodes":[5],"name":"blockbench_export"}],"scene":0,"nodes":[{"rotation":[0.7071067811865475,0,0,0.7071067811865476],"translation":[-0.1875,1.28125,1.15625],"name":"cylinder","mesh":0},{"rotation":[0.7071067811865475,0,0,0.7071067811865476],"translation":[-0.1875,1.28125,0.90625],"name":"cylinder","mesh":1},{"rotation":[0.7071067811865475,0,0,0.7071067811865476],"translation":[-0.1875,1.28125,0.75],"name":"sphere","mesh":2},{"translation":[0,0.46875,0],"name":"cylinder_selection_selection","mesh":3},{"name":"cuboid","mesh":4},{"children":[0,1,2,3,4]}],"bufferViews":[{"buffer":0,"byteOffset":0,"byteLength":720,"target":34962,"byteStride":12},{"buffer":0,"byteOffset":720,"byteLength":720,"target":34962,"byteStride":12},{"buffer":0,"byteOffset":1440,"byteLength":480,"target":34962,"byteStride":8},{"buffer":0,"byteOffset":1920,"byteLength":144,"target":34963},{"buffer":0,"byteOffset":2064,"byteLength":720,"target":34962,"byteStride":12},{"buffer":0,"byteOffset":2784,"byteLength":720,"target":34962,"byteStride":12},{"buffer":0,"byteOffset":3504,"byteLength":480,"target":34962,"byteStride":8},{"buffer":0,"byteOffset":3984,"byteLength":144,"target":34963},{"buffer":0,"byteOffset":4128,"byteLength":5328,"target":34962,"byteStride":12},{"buffer":0,"byteOffset":9456,"byteLength":5328,"target":34962,"byteStride":12},{"buffer":0,"byteOffset":14784,"byteLength":3552,"target":34962,"byteStride":8},{"buffer":0,"byteOffset":18336,"byteLength":1080,"target":34963},{"buffer":0,"byteOffset":19416,"byteLength":2208,"target":34962,"byteStride":12},{"buffer":0,"byteOffset":21624,"byteLength":2208,"target":34962,"byteStride":12},{"buffer":0,"byteOffset":23832,"byteLength":1472,"target":34962,"byteStride":8},{"buffer":0,"byteOffset":25304,"byteLength":552,"target":34963},{"buffer":0,"byteOffset":25856,"byteLength":3864,"target":34962,"byteStride":12},{"buffer":0,"byteOffset":29720,"byteLength":3864,"target":34962,"byteStride":12},{"buffer":0,"byteOffset":33584,"byteLength":2576,"target":34962,"byteStride":8},{"buffer":0,"byteOffset":36160,"byteLength":924,"target":34963}],"buffers":[{"byteLength":37084,"uri":"data:application/octet-stream;base64,"}],"accessors":[{"bufferView":0,"componentType":5126,"count":60,"max":[0.0703125,0.03125,0.125],"min":[-0.0703125,-0.03125,0],"type":"VEC3"},{"bufferView":1,"componentType":5126,"count":60,"max":[0.8715755343437195,1,1],"min":[-0.8715755343437195,-1,-1],"type":"VEC3"},{"bufferView":2,"componentType":5126,"count":60,"max":[0.5773500204086304,0.5],"min":[0,0],"type":"VEC2"},{"bufferView":3,"componentType":5123,"count":72,"max":[59],"min":[0],"type":"SCALAR"},{"bufferView":4,"componentType":5126,"count":60,"max":[0.0390625,0.21875,0.09375],"min":[-0.0390625,-0.15625,0.03125],"type":"VEC3"},{"bufferView":5,"componentType":5126,"count":60,"max":[0.847998321056366,1,1],"min":[-0.847998321056366,-1,-1],"type":"VEC3"},{"bufferView":6,"componentType":5126,"count":60,"max":[0.5773500204086304,0.5],"min":[0,0],"type":"VEC2"},{"bufferView":7,"componentType":5123,"count":72,"max":[59],"min":[0],"type":"SCALAR"},{"bufferView":8,"componentType":5126,"count":444,"max":[0.5,0.078125,0.4375],"min":[-0.0703125,-0.078125,-0.125],"type":"VEC3"},{"bufferView":9,"componentType":5126,"count":444,"max":[1,1,1],"min":[-1,-1,-1],"type":"VEC3"},{"bufferView":10,"componentType":5126,"count":444,"max":[0.5773500204086304,0.5],"min":[0,0],"type":"VEC2"},{"bufferView":11,"componentType":5123,"count":540,"max":[443],"min":[0],"type":"SCALAR"},{"bufferView":12,"componentType":5126,"count":184,"max":[0.5410441756248474,0.5,0.625],"min":[-0.5410441756248474,0.4375,-0.5129845142364502],"type":"VEC3"},{"bufferView":13,"componentType":5126,"count":184,"max":[0.9992908239364624,1,1],"min":[-0.9992908239364624,-1,-1],"type":"VEC3"},{"bufferView":14,"componentType":5126,"count":184,"max":[0.7274374961853027,0.7274329662322998],"min":[0,0],"type":"VEC2"},{"bufferView":15,"componentType":5123,"count":276,"max":[183],"min":[0],"type":"SCALAR"},{"bufferView":16,"componentType":5126,"count":322,"max":[0.5410441756248474,0.9674999713897705,0.9650570154190063],"min":[-0.5410441756248474,0,-0.6174581050872803],"type":"VEC3"},{"bufferView":17,"componentType":5126,"count":322,"max":[1,1,1],"min":[-1,-1,-1],"type":"VEC3"},{"bufferView":18,"componentType":5126,"count":322,"max":[1,1],"min":[0,0],"type":"VEC2"},{"bufferView":19,"componentType":5123,"count":462,"max":[321],"min":[0],"type":"SCALAR"}],"materials":[{"pbrMetallicRoughness":{"metallicFactor":0,"roughnessFactor":1},"alphaMode":"MASK","alphaCutoff":0.05,"doubleSided":true}],"meshes":[{"primitives":[{"mode":4,"attributes":{"POSITION":0,"NORMAL":1,"TEXCOORD_0":2},"indices":3,"material":0}]},{"primitives":[{"mode":4,"attributes":{"POSITION":4,"NORMAL":5,"TEXCOORD_0":6},"indices":7,"material":0}]},{"primitives":[{"mode":4,"attributes":{"POSITION":8,"NORMAL":9,"TEXCOORD_0":10},"indices":11,"material":0}]},{"primitives":[{"mode":4,"attributes":{"POSITION":12,"NORMAL":13,"TEXCOORD_0":14},"indices":15,"material":0}]},{"primitives":[{"mode":4,"attributes":{"POSITION":16,"NORMAL":17,"TEXCOORD_0":18},"indices":19,"material":0}]}]}